<svg width="95" height="82" viewBox="0 0 95 82" fill="none" xmlns="http://www.w3.org/2000/svg">
<g clip-path="url(#clip0_246_852)">
<path d="M26.4999 54.75C28.8275 58.1846 31.9581 60.9993 35.6199 62.95C41.1344 65.8761 47.5368 66.6573 53.5932 65.1432C59.6496 63.6292 64.9311 59.9269 68.4199 54.75L69.5299 55.5C67.0915 59.1113 63.8041 62.0691 59.9562 64.1138C56.1083 66.1586 51.8174 67.2279 47.4599 67.2279C43.1024 67.2279 38.8115 66.1586 34.9636 64.1138C31.1157 62.0691 27.8283 59.1113 25.3899 55.5L26.4999 54.75ZM85.2899 55.37C82.3136 62.9804 77.1112 69.5162 70.3622 74.1235C63.6133 78.7309 55.6316 81.1956 47.4599 81.1956C39.2882 81.1956 31.3065 78.7309 24.5575 74.1235C17.8086 69.5162 12.6061 62.9804 9.62988 55.37L10.8799 54.88C13.7569 62.2412 18.7877 68.5633 25.3147 73.0201C31.8417 77.477 39.5614 79.8611 47.4649 79.8611C55.3684 79.8611 63.088 77.477 69.6151 73.0201C76.1421 68.5633 81.1728 62.2412 84.0499 54.88L85.2899 55.37ZM10.5399 23.67C13.7804 16.6005 18.9817 10.6095 25.5261 6.40845C32.0705 2.2074 39.6831 -0.0272156 47.4599 -0.0300293C55.2367 -0.0272156 62.8493 2.2074 69.3937 6.40845C75.9381 10.6095 81.1394 16.6005 84.3799 23.67L83.1699 24.22C80.0385 17.3812 75.009 11.5856 68.6794 7.52228C62.3498 3.45895 54.9865 1.29889 47.4649 1.29889C39.9433 1.29889 32.5799 3.45895 26.2504 7.52228C19.9208 11.5856 14.8913 17.3812 11.7599 24.22L10.5399 23.67ZM66.8699 24.37C64.4983 21.5252 61.5304 19.2364 58.1762 17.6658C54.822 16.0951 51.1636 15.281 47.4599 15.281C43.7562 15.281 40.0977 16.0951 36.7436 17.6658C33.3894 19.2364 30.4215 21.5252 28.0499 24.37L27.0499 23.51C29.5492 20.5172 32.6752 18.1097 36.2072 16.4576C39.7391 14.8056 43.5907 13.9493 47.4899 13.9493C51.3891 13.9493 55.2407 14.8056 58.7726 16.4576C62.3045 18.1097 65.4306 20.5172 67.9299 23.51L66.8699 24.37Z" fill="#fff"/>
<path d="M64.1298 12.13C63.8522 12.5103 63.6735 12.9535 63.6098 13.42C63.5934 13.5575 63.6165 13.6968 63.6764 13.8217C63.7362 13.9465 63.8304 14.0518 63.9478 14.1252C64.0652 14.1986 64.2011 14.2371 64.3395 14.2361C64.478 14.2352 64.6133 14.1949 64.7298 14.12C65.1171 13.8498 65.4329 13.4895 65.6498 13.07C65.9309 12.6907 66.1131 12.2473 66.1798 11.78C66.1928 11.6375 66.1642 11.4944 66.0975 11.3678C66.0309 11.2412 65.9289 11.1367 65.8041 11.0668C65.6792 10.997 65.5368 10.9649 65.3941 10.9743C65.2513 10.9837 65.1144 11.0343 64.9998 11.12C64.6442 11.39 64.348 11.7304 64.1298 12.12M63.5698 11.77C63.8573 11.2432 64.2962 10.8147 64.8298 10.54C65.0334 10.4458 65.2576 10.4047 65.4814 10.4204C65.7052 10.4361 65.9213 10.5083 66.1098 10.63C66.3098 10.7441 66.475 10.9105 66.5877 11.1113C66.7005 11.3121 66.7565 11.5398 66.7498 11.77C66.7298 12.3569 66.5425 12.926 66.2098 13.41C65.9249 13.9353 65.4897 14.3636 64.9598 14.64C64.7564 14.7351 64.5321 14.7767 64.3081 14.761C64.0841 14.7452 63.8679 14.6726 63.6798 14.55C63.4801 14.4347 63.3146 14.2683 63.2004 14.068C63.0862 13.8677 63.0273 13.6406 63.0298 13.41C63.0481 12.8227 63.2356 12.2532 63.5698 11.77ZM61.1498 11.22L61.8298 9.59998L60.0698 10.77L61.1498 11.22ZM60.9398 11.72L59.5498 11.14C59.5847 10.944 59.5603 10.7421 59.4798 10.56L62.2798 8.70001L62.7598 8.89996L61.6898 11.45L62.3498 11.73L62.1398 12.22L61.4798 11.95L61.2198 12.55L61.5998 12.71L61.3898 13.21L60.0298 12.64L60.2398 12.14L60.6798 12.33L60.9398 11.72ZM58.2998 8.94C58.4598 8.14 58.2998 7.67001 57.8298 7.51001C57.7226 7.47257 57.6082 7.46031 57.4954 7.47418C57.3827 7.48805 57.2747 7.52765 57.1798 7.58997C56.9822 7.7321 56.8379 7.9363 56.7698 8.16998C56.7019 8.3745 56.7019 8.59547 56.7698 8.79999C56.8064 8.89943 56.8664 8.98857 56.9447 9.05994C57.023 9.1313 57.1174 9.18276 57.2198 9.20996C57.4085 9.24845 57.6035 9.24423 57.7904 9.19751C57.9773 9.15079 58.1513 9.06279 58.2998 8.94ZM55.7298 9.65997L56.2398 9.82996C56.1951 10.0552 56.2195 10.2888 56.3098 10.5C56.3498 10.5928 56.4088 10.6763 56.4828 10.7451C56.5568 10.814 56.6443 10.8667 56.7398 10.9C56.8774 10.9394 57.0233 10.9397 57.1611 10.9009C57.2988 10.862 57.4231 10.7855 57.5198 10.68C57.8016 10.3681 58.007 9.99492 58.1198 9.58997C57.9499 9.69568 57.7594 9.7638 57.561 9.78967C57.3627 9.81555 57.1611 9.7986 56.9698 9.73999C56.8124 9.69107 56.6671 9.60973 56.5431 9.50122C56.4191 9.39271 56.3192 9.25945 56.2498 9.10999C56.1134 8.76636 56.1134 8.3836 56.2498 8.03998C56.3656 7.66507 56.6053 7.34067 56.9298 7.12C57.0858 7.01654 57.2642 6.95171 57.4503 6.93085C57.6363 6.90998 57.8247 6.93368 57.9998 7C58.2109 7.0617 58.4031 7.17557 58.5587 7.33112C58.7142 7.48666 58.8281 7.67881 58.8898 7.88995C59.0334 8.47152 58.9914 9.08344 58.7698 9.63995C58.6078 10.2131 58.2933 10.7315 57.8598 11.14C57.6828 11.2898 57.4697 11.3908 57.2417 11.4329C57.0137 11.475 56.7786 11.4568 56.5598 11.38C56.3901 11.3377 56.2327 11.2558 56.1007 11.1411C55.9686 11.0264 55.8655 10.8821 55.7998 10.72C55.6785 10.377 55.6785 10.0029 55.7998 9.65997M52.9098 9.91998L53.4298 6.57996L52.8198 6.47998L52.9098 5.95996L54.1098 6.13995L53.5098 10.02L54.0898 10.1L53.9998 10.64L52.2198 10.36L52.2998 9.82996L52.9098 9.91998ZM44.5898 9.77997L44.2898 6.44L43.7098 6.5V5.94L47.4098 5.60999L47.5298 6.95001L46.9798 7L46.9098 6.20996L45.0098 6.38L45.1298 7.70996L46.7898 7.56V8.12L45.1298 8.26001L45.2598 9.71997L47.1598 9.54999L47.0898 8.73999L47.6098 8.66998L47.7298 10.04L44.0398 10.37V9.81L44.5898 9.77997ZM42.2798 8.77997L42.9198 8.96997C42.9207 9.45043 42.7424 9.91397 42.4198 10.27C42.0919 10.6317 41.6578 10.8803 41.1798 10.98C40.8876 11.0643 40.5805 11.0838 40.28 11.0372C39.9794 10.9905 39.6927 10.8789 39.4398 10.71C38.9469 10.3521 38.5996 9.82835 38.4619 9.23499C38.3241 8.64162 38.405 8.01847 38.6898 7.47998C38.8439 7.22371 39.0498 7.00239 39.2943 6.8302C39.5388 6.65801 39.8166 6.53874 40.1098 6.47998C40.6168 6.36922 41.1464 6.43631 41.6098 6.66998L41.5098 6.26996L42.0798 6.13995L42.3998 7.53998L41.8398 7.66998C41.657 7.4244 41.4016 7.24247 41.1098 7.14996C40.8263 7.0543 40.5223 7.03704 40.2298 7.09998C40.0212 7.14111 39.8238 7.22671 39.6513 7.35095C39.4787 7.4752 39.335 7.6352 39.2298 7.82001C39.0262 8.2182 38.9764 8.67739 39.0898 9.10999C39.1796 9.55549 39.442 9.94739 39.8198 10.2C39.987 10.3198 40.1783 10.4015 40.3804 10.4395C40.5825 10.4775 40.7905 10.4709 40.9898 10.42C41.3239 10.3427 41.6208 10.1519 41.8298 9.88C42.0639 9.57633 42.1906 9.20347 42.1898 8.82001M34.4398 12.67L33.2298 9.54999L32.6298 9.77997L32.4298 9.26001L33.8498 8.70996L36.9298 11.24L35.9298 8.51996L35.3398 8.75L35.1398 8.22998L36.8498 7.57001L37.0498 8.08997L36.4398 8.32996L37.8598 12.01L37.2198 12.26L33.8398 9.47998L34.9998 12.48L35.5998 12.24L35.7998 12.77L34.0898 13.43L33.8898 12.9L34.4398 12.67ZM32.3298 13.87L30.6098 10.94L30.1898 11.18L29.9098 10.7L31.3298 9.87L31.6098 10.35L31.1898 10.6L32.8698 13.49L33.2898 13.25L33.5698 13.73L32.1498 14.56L31.8698 14.08L32.3298 13.87ZM29.0798 16.67L28.1498 15.34L28.6098 15.02L28.8298 15.34C29.0214 15.4608 29.2433 15.5249 29.4698 15.5249C29.6963 15.5249 29.9182 15.4608 30.1098 15.34C30.1962 15.285 30.2708 15.2133 30.3291 15.1292C30.3875 15.0451 30.4285 14.9502 30.4498 14.85C30.4738 14.7543 30.4764 14.6545 30.4574 14.5577C30.4384 14.4609 30.3982 14.3695 30.3398 14.29C30.2938 14.217 30.2323 14.155 30.1598 14.1083C30.0872 14.0617 30.0053 14.0315 29.9198 14.02C29.6654 14.0421 29.4159 14.1029 29.1798 14.2C28.8867 14.3115 28.5859 14.4017 28.2798 14.47C28.0738 14.5019 27.8631 14.4777 27.6698 14.4C27.4174 14.2812 27.2112 14.0828 27.0829 13.8352C26.9545 13.5876 26.9113 13.3046 26.9598 13.03C27.0384 12.6967 27.2426 12.4065 27.5298 12.22C27.8218 12.0152 28.1735 11.9132 28.5298 11.93L28.3498 11.68L28.7998 11.37L29.6098 12.47L29.1598 12.78L28.9798 12.53C28.8065 12.4546 28.6165 12.4261 28.4288 12.4471C28.241 12.4682 28.0621 12.5381 27.9098 12.65C27.7367 12.7532 27.6084 12.9172 27.5498 13.11C27.5274 13.1838 27.5221 13.2618 27.5342 13.338C27.5463 13.4142 27.5756 13.4867 27.6198 13.55C27.6857 13.6464 27.7801 13.7199 27.8898 13.76C27.9943 13.79 28.1052 13.79 28.2098 13.76C28.4143 13.7077 28.6148 13.6409 28.8098 13.56C29.0884 13.4486 29.3761 13.3616 29.6698 13.3C29.8882 13.2765 30.1089 13.311 30.3098 13.4C30.5386 13.5072 30.7352 13.6728 30.8798 13.88C30.9862 14.021 31.0602 14.1836 31.0965 14.3565C31.1328 14.5294 31.1305 14.7081 31.0898 14.88C31.0096 15.2392 30.7949 15.5541 30.4898 15.76C30.1558 15.9953 29.7436 16.092 29.3398 16.03L29.5498 16.33L29.0798 16.67Z" fill="#fff"/>
<path d="M63.6102 12.81C63.7165 12.5484 63.8471 12.2973 64.0002 12.06C64.14 11.8373 64.2937 11.6235 64.4602 11.42C64.5927 11.2588 64.7476 11.1174 64.9202 11C65.0621 10.8943 65.2333 10.8348 65.4102 10.83C65.5841 10.8248 65.7553 10.8737 65.9002 10.97C66.0359 11.052 66.1465 11.1696 66.2202 11.31C66.2921 11.4557 66.3232 11.6181 66.3102 11.78C66.2974 11.9907 66.2466 12.1973 66.1602 12.39C66.0502 12.6549 65.9163 12.9093 65.7602 13.15C65.6153 13.3894 65.4514 13.6167 65.2702 13.83C65.1318 13.99 64.9699 14.1283 64.7902 14.24C64.6479 14.3244 64.4856 14.3692 64.3202 14.37C64.1607 14.3719 64.0041 14.3267 63.8702 14.24C63.7311 14.1547 63.6172 14.0338 63.5402 13.89C63.4767 13.7383 63.4493 13.574 63.4602 13.41C63.4683 13.2018 63.5193 12.9975 63.6102 12.81ZM64.2402 12.2C64.0998 12.4274 63.9761 12.6646 63.8702 12.91C63.7985 13.0721 63.7514 13.244 63.7302 13.42C63.725 13.5406 63.749 13.6606 63.8002 13.77C63.8488 13.867 63.9254 13.9472 64.0202 14C64.1101 14.0569 64.2138 14.088 64.3202 14.09C64.4405 14.0883 64.5581 14.0537 64.6602 13.99C64.8109 13.8989 64.946 13.784 65.0602 13.65C65.2303 13.4457 65.3842 13.2284 65.5202 13C65.6673 12.7748 65.7944 12.5372 65.9002 12.29C65.9729 12.1288 66.0169 11.9562 66.0302 11.78C66.0373 11.6635 66.0167 11.547 65.9702 11.44C65.9189 11.3449 65.8429 11.2654 65.7502 11.21C65.6524 11.1451 65.5376 11.1103 65.4202 11.11C65.2945 11.1235 65.1742 11.1682 65.0702 11.24C64.9221 11.3464 64.7878 11.4706 64.6702 11.61C64.516 11.802 64.3725 12.0023 64.2402 12.21M64.2402 11.12C64.012 11.3435 63.8137 11.5956 63.6502 11.87C63.4868 12.1276 63.3526 12.4026 63.2502 12.69C63.1738 12.9294 63.1334 13.1787 63.1302 13.43C63.1263 13.6366 63.1781 13.8403 63.2802 14.02C63.3835 14.1984 63.5318 14.3467 63.7102 14.45C63.879 14.5572 64.071 14.6223 64.2702 14.64C64.4729 14.6513 64.6753 14.6136 64.8602 14.53C65.0873 14.4237 65.2938 14.2781 65.4702 14.1C65.6927 13.8777 65.8875 13.6292 66.0502 13.36C66.2141 13.0956 66.3482 12.8138 66.4502 12.52C66.5369 12.2866 66.5776 12.0388 66.5702 11.79C66.5727 11.5848 66.5246 11.3822 66.4302 11.2C66.3206 11.0284 66.1738 10.8836 66.0007 10.7762C65.8276 10.6689 65.6327 10.6018 65.4302 10.58C65.2275 10.5686 65.0251 10.6063 64.8402 10.69C64.6143 10.7932 64.4105 10.9392 64.2402 11.12ZM63.4102 11.72C63.5896 11.4306 63.8009 11.1622 64.0402 10.92C64.2366 10.7163 64.471 10.5533 64.7302 10.44C64.9545 10.3332 65.2022 10.2851 65.4502 10.3C65.6957 10.3185 65.9327 10.3975 66.1402 10.53C66.3568 10.6616 66.5386 10.8434 66.6702 11.06C66.7925 11.28 66.8546 11.5283 66.8502 11.78C66.8546 12.062 66.8106 12.3428 66.7202 12.61C66.6099 12.9215 66.4657 13.22 66.2902 13.5C66.114 13.7916 65.9024 14.0603 65.6602 14.3C65.4639 14.5036 65.2294 14.6667 64.9702 14.78C64.7465 14.8884 64.4983 14.9367 64.2502 14.92C64.021 14.8849 63.8025 14.7995 63.6102 14.67C63.3908 14.5375 63.2085 14.3518 63.0802 14.13C62.9579 13.91 62.8958 13.6616 62.9002 13.41C62.8996 13.1306 62.9469 12.8533 63.0402 12.59C63.143 12.2771 63.2841 11.9783 63.4602 11.7M61.9702 9.70001L61.2902 11.33L61.2302 11.46L61.1002 11.4L60.0202 10.95L59.7802 10.84L60.0002 10.7L61.7602 9.52997L61.9702 9.70001ZM61.0802 11.09L61.5302 10.02L60.3702 10.79L61.0802 11.09ZM59.7102 11.09L61.0002 11.63L61.1302 11.68L61.0802 11.81L60.8202 12.42V12.55L60.6902 12.5L60.3802 12.37L60.2802 12.61L61.3802 13.07L61.4802 12.83L61.2302 12.72H61.1002L61.1602 12.59L61.4102 11.98L61.4702 11.85L61.5902 11.91L62.1202 12.13L62.2202 11.89L61.7002 11.67L61.5702 11.61V11.49L62.5702 9.07001L62.2902 8.95001L59.6102 10.67V10.87L59.7102 11.09ZM60.7702 11.83L59.5102 11.3H59.4102V10.94L59.3502 10.69V10.59L59.4502 10.52L62.2502 8.66998H62.3102H62.3802L62.8602 8.87H62.9802V9L61.9802 11.42L62.5102 11.64H62.6402V11.77L62.4302 12.27L62.3702 12.4L62.2402 12.34L61.7102 12.12L61.5702 12.47L61.8102 12.57L61.9402 12.63V12.76L61.7302 13.26L61.6702 13.39L61.5502 13.33L60.1902 12.76L60.0602 12.71L60.1102 12.58L60.3302 12.08V11.95L60.4602 12L60.7702 12.13V11.83ZM58.4402 7.97998C58.5223 8.30825 58.5223 8.65171 58.4402 8.97998V9.02997C58.2459 9.15766 58.0335 9.25545 57.8102 9.32001C57.6242 9.3753 57.4262 9.3753 57.2402 9.32001C57.1146 9.28678 56.9983 9.22515 56.9002 9.13995C56.81 9.05385 56.7415 8.94763 56.7002 8.82996C56.6521 8.71965 56.6282 8.60031 56.6302 8.47998C56.639 8.35433 56.6625 8.23016 56.7002 8.10999C56.7376 7.97378 56.7985 7.84517 56.8802 7.72998C56.959 7.62255 57.0574 7.53093 57.1702 7.45996C57.2747 7.38045 57.3994 7.33199 57.5302 7.32001C57.662 7.29099 57.7984 7.29099 57.9302 7.32001C58.0628 7.3593 58.1835 7.43107 58.2813 7.52887C58.3791 7.62667 58.4509 7.74739 58.4902 7.88M58.2302 8.78998C58.2963 8.52064 58.2963 8.23931 58.2302 7.96997C58.2005 7.87996 58.1495 7.79845 58.0817 7.7323C58.0138 7.66615 57.931 7.61732 57.8402 7.58997C57.7517 7.56666 57.6587 7.56666 57.5702 7.58997L57.3202 7.69L57.1102 7.89996C57.0464 7.98886 56.9959 8.08658 56.9602 8.19C56.9347 8.28493 56.9179 8.38198 56.9102 8.47998L56.9602 8.73999L57.0902 8.92999C57.1589 8.98378 57.2368 9.02445 57.3202 9.04999C57.4573 9.08999 57.6031 9.08999 57.7402 9.04999C57.9159 9.00305 58.0818 8.92519 58.2302 8.82001M56.1502 9.89996L55.8902 9.81C55.876 9.93292 55.876 10.0571 55.8902 10.18C55.8936 10.3383 55.9276 10.4945 55.9902 10.64C56.0467 10.7708 56.1322 10.8871 56.2402 10.98C56.366 11.0858 56.5124 11.1641 56.6702 11.21C56.8694 11.278 57.0817 11.2986 57.2902 11.27C57.4926 11.2254 57.6812 11.1329 57.8402 11C58.0331 10.8364 58.1956 10.64 58.3202 10.42C58.4857 10.1521 58.6136 9.86275 58.7002 9.56C58.8038 9.25566 58.8709 8.94013 58.9002 8.62C58.9197 8.37774 58.896 8.13392 58.8302 7.89996C58.7729 7.71112 58.6699 7.53932 58.5304 7.39978C58.3909 7.26024 58.2191 7.15726 58.0302 7.09998C57.8648 7.05157 57.6924 7.03129 57.5202 7.03998C57.3629 7.06385 57.2127 7.12186 57.0802 7.20996C56.9375 7.30796 56.8096 7.42586 56.7002 7.56C56.5965 7.71065 56.5157 7.87574 56.4602 8.04999C56.4018 8.21694 56.3747 8.39323 56.3802 8.57001C56.3825 8.72525 56.4166 8.87833 56.4802 9.01996C56.547 9.15013 56.6349 9.26843 56.7402 9.37C56.8563 9.46321 56.9885 9.53434 57.1302 9.57996C57.2985 9.61444 57.472 9.61444 57.6402 9.57996C57.823 9.54636 57.9988 9.48212 58.1602 9.38995L58.3702 9.54999C58.295 9.78202 58.1979 10.0064 58.0802 10.22C57.9849 10.3945 57.8672 10.5559 57.7302 10.7C57.6113 10.8219 57.4633 10.9113 57.3002 10.96C57.1441 11.0097 56.9763 11.0097 56.8202 10.96C56.7055 10.9221 56.5999 10.8608 56.5102 10.78C56.4223 10.6976 56.351 10.5992 56.3002 10.49C56.2493 10.3762 56.2188 10.2544 56.2102 10.13C56.2002 10.0403 56.2002 9.94971 56.2102 9.85999M55.8902 9.45996L56.4102 9.62H56.5302V9.73999C56.5159 9.84618 56.5159 9.95381 56.5302 10.06C56.5415 10.1571 56.5685 10.2516 56.6102 10.34L56.7502 10.54L56.9602 10.65C57.0606 10.685 57.1698 10.685 57.2702 10.65C57.3917 10.6158 57.502 10.5502 57.5902 10.46C57.7866 10.2523 57.9396 10.0075 58.0402 9.73999C57.9409 9.77848 57.8364 9.80208 57.7302 9.81C57.5226 9.85459 57.3078 9.85459 57.1002 9.81C56.9221 9.7568 56.7581 9.66454 56.6202 9.53998C56.4803 9.41832 56.3678 9.26834 56.2902 9.09998C56.2083 8.92441 56.164 8.73366 56.1602 8.53998C56.1514 8.33278 56.1819 8.12581 56.2502 7.92999C56.3141 7.72504 56.4122 7.53234 56.5402 7.35999C56.6587 7.19314 56.808 7.05058 56.9802 6.94C57.1499 6.82383 57.3457 6.75164 57.5502 6.72998C57.7628 6.70448 57.9784 6.72844 58.1802 6.79999C58.4094 6.86957 58.6185 6.993 58.7902 7.15997C58.9557 7.3328 59.0789 7.54156 59.1502 7.76996C59.2327 8.03839 59.2632 8.3201 59.2402 8.59998C59.2108 8.94056 59.1403 9.27633 59.0302 9.59998C58.9275 9.92067 58.79 10.2292 58.6202 10.52C58.4811 10.7647 58.298 10.9816 58.0802 11.16C57.8884 11.3307 57.653 11.4449 57.4002 11.49C57.1458 11.534 56.8845 11.5134 56.6402 11.43C56.4512 11.3693 56.2749 11.2744 56.1202 11.15C55.9796 11.0233 55.8701 10.8659 55.8002 10.69C55.733 10.5141 55.6958 10.3282 55.6902 10.14C55.6886 9.93719 55.7155 9.73523 55.7702 9.53998V9.39996L55.8902 9.45996ZM53.6202 6.52997L53.1002 9.87V10.01H52.9702L52.5002 9.94V10.2L54.0102 10.43V10.17L53.5702 10.1H53.4302V9.95996L54.0102 6.22998L53.0802 6.07996V6.33997L53.5502 6.40997H53.6902L53.6202 6.52997ZM52.8402 9.69L53.3202 6.63L52.8502 6.54999H52.7102V6.40997L52.7902 5.88V5.75H52.9302L54.1302 5.94H54.2702V6.07001L53.6902 9.81L54.1302 9.88H54.2702V10.02L54.1902 10.55V10.69H54.0502L52.2702 10.41H52.1302V10.27L52.2202 9.73999V9.59998H52.3602L52.8402 9.69ZM44.4802 6.35999L44.7802 9.70001V9.83997H44.6402H44.2102V10.12L47.6302 9.81L47.5302 8.71997H47.2602L47.3202 9.38995V9.52997H47.1802L45.2802 9.70001H45.1402V9.56L45.0102 8.10999V7.96997H45.1502L46.6602 7.82996V7.54999L45.1402 7.69H45.0002V7.54999L44.8802 6.22998V6.08997H45.0202L46.9202 5.91998H47.0602V6.06L47.1202 6.70001H47.3902L47.3002 5.63995L43.8702 5.95001V6.21997H44.3102H44.4502L44.4802 6.35999ZM44.4802 9.57996L44.2002 6.57996H43.7702H43.6302V6.44V5.88V5.73999H43.6102L47.3102 5.40997H47.4502V5.54999L47.5702 6.88995V7.02997H47.4302L46.8802 7.07996H46.7402V6.94V6.28998L45.1102 6.44L45.2102 7.44L46.7202 7.29999H46.8602V7.44V7.98999V8.13H46.7202L45.2002 8.26996L45.3102 9.45001L46.9302 9.29999L46.8702 8.63V8.66998H47.0102L47.5602 8.62H47.7002V8.66998L47.8202 10.03V10.17H47.6802L43.9802 10.51H43.8402V10.37V9.82001V9.67999H43.9802L44.4802 9.57996ZM42.8202 9L42.4502 8.89996C42.4346 9.0501 42.401 9.19782 42.3502 9.33997C42.2915 9.52984 42.1964 9.70648 42.0702 9.85999C41.8866 10.095 41.6427 10.2758 41.3644 10.3832C41.0862 10.4906 40.7841 10.5206 40.4902 10.47C40.2687 10.4242 40.0581 10.3359 39.8702 10.21C39.6708 10.0838 39.5004 9.9168 39.3702 9.71997C39.2338 9.50879 39.1356 9.27522 39.0802 9.02997C39.0412 8.7882 39.0412 8.54176 39.0802 8.29999C39.109 8.07211 39.1802 7.85162 39.2902 7.64996C39.3913 7.44844 39.5387 7.27368 39.7202 7.13995C39.9044 7.00326 40.1159 6.9078 40.3402 6.85999C40.4962 6.83978 40.6542 6.83978 40.8102 6.85999C40.9733 6.87026 41.1345 6.90052 41.2902 6.95001C41.447 7.00095 41.5954 7.07507 41.7302 7.16998C41.842 7.24988 41.9428 7.34403 42.0302 7.45001L42.3702 7.37L42.1102 6.25L41.8202 6.32001L41.8802 6.57996L41.9502 6.85999L41.6902 6.72998C41.4724 6.63052 41.2389 6.56962 41.0002 6.54999C40.4503 6.50684 39.9015 6.64756 39.4402 6.95001C39.2209 7.10853 39.036 7.30988 38.8968 7.54193C38.7576 7.77398 38.6669 8.03187 38.6302 8.29999C38.6004 8.6084 38.6241 8.91962 38.7002 9.21997C38.7629 9.49754 38.8746 9.76172 39.0302 10C39.1814 10.2313 39.3789 10.4288 39.6102 10.58C39.8361 10.7302 40.092 10.8292 40.3602 10.87C40.6477 10.9239 40.9427 10.9239 41.2302 10.87C41.4574 10.8173 41.6762 10.7331 41.8802 10.62C42.0724 10.505 42.2474 10.3637 42.4002 10.2C42.4965 10.0349 42.5673 9.85621 42.6102 9.66998C42.6722 9.48872 42.7125 9.30074 42.7302 9.10999M42.2702 8.69L42.9102 8.87H43.0202V8.97998C43.021 9.23979 42.9735 9.4975 42.8802 9.73999C42.7856 9.97524 42.6502 10.1919 42.4802 10.38C42.3091 10.5663 42.11 10.7248 41.8902 10.85C41.6641 10.9757 41.4218 11.0699 41.1702 11.13C40.8402 11.1963 40.5002 11.1963 40.1702 11.13C39.859 11.0812 39.5621 10.9651 39.3002 10.79C39.0454 10.6152 38.825 10.3948 38.6502 10.14C38.4737 9.87074 38.3452 9.57307 38.2702 9.26001C38.195 8.93235 38.1714 8.59495 38.2002 8.26001C38.2349 7.94683 38.3409 7.64577 38.5102 7.38C38.668 7.11596 38.8792 6.88771 39.1302 6.70996C39.4011 6.52994 39.7028 6.40114 40.0202 6.32996C40.3016 6.2628 40.5916 6.23925 40.8802 6.26001C41.0571 6.27739 41.2315 6.31427 41.4002 6.37V6.22998V6.09998H41.5402L42.1002 5.96997H42.2402V6.10999L42.5702 7.51001V7.63995H42.4302L41.8702 7.76996H41.7802L41.7302 7.69C41.643 7.58096 41.5421 7.48346 41.4302 7.39996C41.3186 7.31839 41.1933 7.25744 41.0602 7.21997C40.931 7.17732 40.7962 7.15373 40.6602 7.14996C40.5276 7.1301 40.3928 7.1301 40.2602 7.14996C40.0764 7.1879 39.9032 7.26579 39.7529 7.37811C39.6025 7.49044 39.4787 7.63449 39.3902 7.79999C39.2992 7.97091 39.2416 8.15754 39.2202 8.34998C39.1859 8.56193 39.1859 8.77804 39.2202 8.98999C39.2642 9.2011 39.3491 9.40152 39.4702 9.57996C39.5786 9.74838 39.7218 9.89165 39.8902 10C40.0443 10.1036 40.2178 10.175 40.4002 10.21C40.578 10.2496 40.7624 10.2496 40.9402 10.21C41.0858 10.1727 41.2242 10.1119 41.3502 10.03C41.4827 9.94597 41.6008 9.84131 41.7002 9.71997C41.8035 9.5873 41.8846 9.43868 41.9402 9.27997C41.9977 9.10565 42.0281 8.92354 42.0302 8.73999V8.56L42.2702 8.69ZM33.3802 9.48999L34.6102 12.58V12.67L34.4802 12.73L34.0102 12.9L34.1102 13.17L35.6102 12.67L35.5102 12.41L35.0402 12.59L34.9102 12.64L34.8602 12.51L33.7002 9.51001L33.9202 9.34998L37.2302 12.08L37.6702 11.91L36.3002 8.35999L36.2502 8.22998H36.3802L36.8602 8.03998L36.7602 7.77997L35.3102 8.33997L35.4102 8.59998L35.8702 8.41998H36.0002L36.0502 8.54999L37.0502 11.27L36.8302 11.43L33.8302 8.95001L32.6102 9.41998L32.7102 9.67999L33.1802 9.5L33.3102 9.45001L33.3802 9.48999ZM34.2702 12.58L33.1502 9.66998L32.6802 9.84998H32.5502V9.71997L32.3502 9.20001V9.07001L32.4802 9.01996L33.9002 8.46997H33.9802H34.0402L36.6102 10.75L35.8002 8.66998L35.3402 8.84998L35.2102 8.89996V8.76996L35.0102 8.25V8.12L35.1402 8.07001L36.8502 7.40997L36.9802 7.35999V7.48999L37.1802 8.01001V8.13995H37.0502L36.5702 8.32996L37.9502 11.88V12.01H37.8202L37.1702 12.26H37.0902L37.0302 12.21L34.0302 9.76996L34.9402 12.13L35.4102 11.95H35.5402V12.08L35.7402 12.61V12.74L35.6102 12.79L33.9002 13.45H33.7702V13.32L33.5702 12.8V12.67L33.7002 12.61L34.2702 12.58ZM30.7902 10.9L32.4702 13.79L32.5402 13.91L32.4202 13.98L32.1202 14.16L32.2602 14.4L33.4402 13.71L33.3002 13.47L33.0002 13.64L32.8802 13.71L32.8102 13.59L31.1102 10.67L31.0402 10.55L31.1602 10.48L31.4602 10.3L31.3202 10.06L30.1402 10.75L30.2802 10.99L30.5802 10.81L30.7002 10.74L30.7902 10.9ZM32.1602 13.81L30.6102 11.13L30.3202 11.3L30.2002 11.37L30.1302 11.25L29.8402 10.77L29.7702 10.64L29.9002 10.57L31.3202 9.75L31.4402 9.67999L31.5102 9.79999L31.7902 10.28L31.8602 10.4L31.7402 10.47L31.4402 10.65L32.9802 13.3L33.2802 13.13L33.4002 13.06L33.4702 13.18L33.7502 13.66L33.8202 13.78L33.7002 13.85L32.2802 14.68L32.1602 14.75L32.0902 14.63L31.8102 14.15L31.7402 14.02L31.8602 13.95L32.1602 13.81ZM28.3602 15.4L29.1402 16.5L29.3702 16.34L29.2302 16.15L29.0502 15.9H29.3602C29.5485 15.9354 29.7419 15.9354 29.9302 15.9C30.1079 15.8585 30.2748 15.7802 30.4202 15.67C30.5612 15.577 30.6833 15.4583 30.7802 15.32C30.8705 15.1876 30.9318 15.0377 30.9602 14.88C30.9959 14.7288 30.9959 14.5712 30.9602 14.42C30.925 14.264 30.8568 14.1174 30.7602 13.99C30.6941 13.8945 30.6169 13.8073 30.5302 13.73C30.4453 13.6605 30.351 13.6033 30.2502 13.56L29.9602 13.47H29.6902L29.3502 13.55L28.8602 13.72L28.4802 13.86L28.2402 13.93H28.0402H27.8402L27.6502 13.83L27.5102 13.68C27.4508 13.6011 27.4128 13.508 27.4002 13.41C27.3805 13.3143 27.3805 13.2157 27.4002 13.12C27.4338 13.0126 27.4845 12.9113 27.5502 12.82C27.6284 12.7276 27.7193 12.6468 27.8202 12.58C27.9908 12.4551 28.1904 12.376 28.4002 12.35C28.6112 12.3215 28.826 12.3527 29.0202 12.44H29.0902L29.1902 12.58L29.4102 12.42L28.7902 11.54L28.6102 11.67L28.7002 11.8L28.8602 12.03H28.5802C28.4113 12.0191 28.2418 12.0395 28.0802 12.09C27.9265 12.1317 27.7811 12.1993 27.6502 12.29C27.5177 12.3824 27.4026 12.4975 27.3102 12.63C27.2262 12.7475 27.1652 12.8798 27.1302 13.02C27.099 13.1616 27.099 13.3084 27.1302 13.45C27.1614 13.5994 27.2264 13.7396 27.3202 13.86L27.5302 14.09L27.7602 14.23C27.8444 14.2594 27.9316 14.2795 28.0202 14.29H28.3002L28.6702 14.2L29.1802 14.03C29.3276 13.9753 29.4778 13.9285 29.6302 13.89C29.7399 13.8783 29.8505 13.8783 29.9602 13.89C30.0667 13.8989 30.1696 13.9332 30.2602 13.99C30.3511 14.0509 30.4293 14.1291 30.4902 14.22C30.5599 14.3199 30.6107 14.4318 30.6402 14.55C30.6651 14.6653 30.6651 14.7846 30.6402 14.9C30.6127 15.014 30.5653 15.1223 30.5002 15.22C30.4261 15.3154 30.3385 15.3996 30.2402 15.47C30.0476 15.6073 29.8168 15.6808 29.5802 15.68C29.3157 15.6753 29.0558 15.6103 28.8202 15.49L28.6702 15.28L28.3602 15.4ZM28.9902 16.78L28.0502 15.45L27.9702 15.34L28.0902 15.26L28.5502 14.93L28.6602 14.85L28.7402 14.97L28.9502 15.26C29.1373 15.352 29.3418 15.4031 29.5502 15.41C29.7298 15.4121 29.9052 15.356 30.0502 15.25L30.2402 15.07L30.3402 14.84V14.61L30.2402 14.39L30.0802 14.23H29.9302C29.8439 14.2187 29.7565 14.2187 29.6702 14.23L29.2502 14.36L28.7302 14.54C28.6006 14.5848 28.4665 14.615 28.3302 14.63C28.214 14.645 28.0964 14.645 27.9802 14.63C27.8672 14.6177 27.7563 14.5908 27.6502 14.55C27.538 14.5024 27.4336 14.4383 27.3402 14.36C27.2388 14.2815 27.1509 14.1869 27.0802 14.08C26.9693 13.9276 26.891 13.754 26.8502 13.57C26.8103 13.3888 26.8103 13.2011 26.8502 13.02C26.8879 12.8398 26.9628 12.6695 27.0702 12.52C27.187 12.3676 27.3251 12.233 27.4802 12.12C27.6381 12.0101 27.8141 11.9289 28.0002 11.88C28.1012 11.8495 28.2051 11.8294 28.3102 11.82L28.2302 11.71L28.3402 11.63L28.7902 11.31L28.9002 11.23L28.9802 11.35L29.7702 12.46L29.8502 12.57L29.7302 12.65L29.2802 12.97L29.1702 13.05L29.0902 12.93L28.9302 12.71C28.786 12.6591 28.6321 12.642 28.4802 12.66C28.3161 12.6756 28.1598 12.7381 28.0302 12.84L27.8202 13.03L27.7302 13.22V13.4L27.8002 13.54L27.8802 13.64L27.9902 13.69H28.1102H28.2402L28.4502 13.62L28.8202 13.49L29.3302 13.32C29.4547 13.2787 29.5816 13.2453 29.7102 13.22C29.8264 13.2051 29.944 13.2051 30.0602 13.22C30.1837 13.2392 30.3045 13.2728 30.4202 13.32C30.5437 13.3779 30.661 13.4482 30.7702 13.53C30.8763 13.6248 30.9703 13.7323 31.0502 13.85C31.1645 14.009 31.2461 14.1892 31.2902 14.38C31.3301 14.5713 31.3301 14.7687 31.2902 14.96C31.2512 15.1538 31.1729 15.3376 31.0602 15.5C30.9453 15.6664 30.7992 15.809 30.6302 15.92C30.4557 16.0459 30.2589 16.1375 30.0502 16.19C29.9271 16.2004 29.8033 16.2004 29.6802 16.19V16.25L29.7602 16.37L29.6402 16.45L29.1802 16.77L29.0702 16.85L28.9902 16.78Z" fill="#fff"/>
<path d="M71.8398 64.67L69.3398 62.2501L68.6698 62.9401L69.5198 63.7601L69.1198 64.17L67.8498 62.9501L70.4698 60.2501L71.7398 61.47L71.3398 61.89L70.4898 61.0601L69.8198 61.7501L72.3198 64.17L72.7398 63.73L73.1598 64.14L71.8398 65.5001L71.4198 65.1L71.8398 64.67ZM65.9198 69.4L63.9198 66.55L63.3798 66.9301L63.0498 66.4501L64.3498 65.54L68.0798 67.34L66.3498 64.86L65.8098 65.23L65.4798 64.7601L67.0398 63.67L67.3698 64.14L66.8098 64.53L69.1598 67.9L68.5698 68.3101L64.4798 66.3101L66.3898 69.04L66.9298 68.66L67.2598 69.14L65.6998 70.23L65.3698 69.7501L65.9198 69.4ZM61.6698 69.9401L60.3498 68.39H60.2898L60.4498 70.39L61.6698 69.9401ZM62.0398 70.3701L60.5098 71.02L60.5898 72.1301L61.1098 71.91L61.3298 72.4501L59.6498 73.16L59.4198 72.6201L59.9398 72.41L59.6998 68.1L60.4798 67.77L63.4798 70.9301L63.9498 70.72L64.1798 71.2601L62.5098 71.97L62.2798 71.4301L62.8098 71.21L62.0398 70.3701ZM54.5198 71.8101L55.0398 71.66C55.2291 71.607 55.4133 71.5368 55.5898 71.4501C55.6979 71.3806 55.7818 71.2792 55.8298 71.16C55.8801 71.0177 55.8801 70.8624 55.8298 70.72C55.7997 70.5839 55.7216 70.4633 55.6098 70.3801C55.5088 70.3051 55.3855 70.2663 55.2598 70.27C55.0807 70.2942 54.9036 70.331 54.7298 70.3801L54.1598 70.54L54.5198 71.8101ZM54.4398 74.08L53.4398 70.7401L52.8198 70.91L52.6598 70.35L54.4798 69.84C54.7772 69.7415 55.0868 69.6843 55.3998 69.67C55.6378 69.6592 55.8718 69.7337 56.0598 69.8801C56.27 70.0423 56.4183 70.2717 56.4798 70.53C56.5709 70.792 56.5597 71.0787 56.4484 71.3327C56.3372 71.5867 56.1341 71.7894 55.8798 71.9L57.1298 73.3L57.6698 73.15L57.8298 73.7001L56.8298 73.98L55.2198 72.1801L54.5898 72.36L55.0198 73.89L55.5898 73.73L55.7498 74.29L53.8998 74.8201L53.7398 74.2601L54.4398 74.08ZM48.4398 71.21L48.6398 73.53C48.651 73.7772 48.6912 74.0223 48.7598 74.2601C48.8137 74.4045 48.9211 74.5227 49.0598 74.59C49.2387 74.6808 49.4408 74.7157 49.6398 74.6901C49.8574 74.6781 50.0695 74.6165 50.2598 74.5101C50.3893 74.4277 50.4823 74.2989 50.5198 74.15C50.5576 73.9015 50.5576 73.6486 50.5198 73.4L50.3198 71.05H49.7798V70.48L51.5898 70.3201V70.9L51.0098 70.9501L51.2198 73.36C51.243 73.5995 51.243 73.8406 51.2198 74.08C51.2025 74.2529 51.1405 74.4184 51.0398 74.5601C50.9156 74.7427 50.747 74.8907 50.5498 74.9901C50.306 75.1197 50.0357 75.1916 49.7598 75.2001C49.4619 75.234 49.1604 75.2136 48.8698 75.14C48.6599 75.0932 48.4685 74.9853 48.3198 74.83C48.1919 74.7005 48.0961 74.5431 48.0398 74.3701C47.9758 74.1105 47.9323 73.8463 47.9098 73.58L47.7098 71.23H47.1398V70.65L48.9598 70.5001V71.0701L48.4398 71.21ZM44.2798 72.92L43.9098 70.92H43.8498L42.9698 72.77L44.2798 72.92ZM44.3898 73.48L42.7298 73.28L42.2498 74.28L42.8098 74.35L42.7398 74.92L40.9198 74.7001L40.9898 74.1201L41.5498 74.1901L43.4998 70.34L44.3398 70.4501L45.3398 74.66L45.8498 74.72L45.7798 75.3L43.9798 75.08L44.0498 74.5001L44.6198 74.5701L44.3898 73.48ZM37.2698 73.04L38.2698 69.7001L37.3498 69.4301L37.0198 70.5701L36.4698 70.41L36.9598 68.72L40.5698 69.72L40.0798 71.41L39.5298 71.2501L39.8598 70.1201L38.9398 69.85L37.9398 73.2001L38.5198 73.36L38.3598 73.92L36.5298 73.4L36.6898 72.84L37.2698 73.04ZM30.7998 70.98L31.5098 69.46L32.0398 69.7001L31.8698 70.0701C31.8584 70.3048 31.9146 70.5378 32.0315 70.7416C32.1485 70.9454 32.3214 71.1114 32.5298 71.22C32.7214 71.3178 32.943 71.3392 33.1498 71.28C33.2486 71.2486 33.3398 71.1968 33.4173 71.1279C33.4948 71.059 33.557 70.9746 33.5998 70.8801C33.6409 70.8014 33.6625 70.7139 33.6625 70.6251C33.6625 70.5362 33.6409 70.4487 33.5998 70.3701C33.4612 70.1447 33.2773 69.9506 33.0598 69.8C32.8077 69.5935 32.5735 69.366 32.3598 69.1201C32.2253 68.9481 32.1359 68.7453 32.0998 68.53C32.0768 68.3031 32.1184 68.0743 32.2198 67.8701C32.2846 67.707 32.3859 67.5609 32.5159 67.4431C32.6459 67.3252 32.8012 67.2387 32.9698 67.1901C33.3027 67.0944 33.6593 67.1265 33.9698 67.28C34.3094 67.441 34.5844 67.7125 34.7498 68.05L34.8798 67.77L35.3998 68.0101L34.7998 69.28L34.2898 69.04L34.4198 68.7501C34.4011 68.5545 34.3299 68.3676 34.2137 68.2092C34.0975 68.0507 33.9407 67.9266 33.7598 67.85C33.578 67.7463 33.364 67.7143 33.1598 67.7601C33.0242 67.7935 32.9065 67.8771 32.8304 67.9941C32.7542 68.1111 32.7254 68.2526 32.7498 68.39C32.7667 68.5034 32.8192 68.6085 32.8998 68.6901C33.0544 68.8462 33.218 68.9931 33.3898 69.1301C33.6416 69.3188 33.8699 69.537 34.0698 69.78C34.207 69.9597 34.2903 70.1748 34.3098 70.4C34.3343 70.6604 34.2895 70.9226 34.1798 71.16C34.1028 71.3273 33.992 71.4768 33.8543 71.599C33.7166 71.7212 33.555 71.8135 33.3798 71.8701C33.0149 71.9799 32.6219 71.9478 32.2798 71.78C31.8966 71.5963 31.5967 71.275 31.4398 70.8801L31.2798 71.23L30.7998 70.98ZM26.5498 67.33L28.6098 64.61L28.1398 64.2401L28.4998 63.79L31.4998 66.17L30.6398 67.27L30.1798 66.91L30.6898 66.27L29.1298 65.05L28.2798 66.1301L29.6298 67.2001L29.2798 67.65L27.9198 66.59L26.9798 67.79L28.6098 69.0101L29.1298 68.34L29.6098 68.67L28.7298 69.79L25.7298 67.41L26.0898 66.9501L26.5498 67.33ZM24.1198 62.27L24.4998 62.66C24.634 62.8081 24.789 62.9361 24.9598 63.04C25.0685 63.1031 25.1953 63.1278 25.3198 63.11C25.4701 63.0807 25.6069 63.0035 25.7098 62.89C25.8133 62.8014 25.8779 62.6758 25.8898 62.54C25.9129 62.4155 25.8879 62.2869 25.8198 62.1801C25.7184 62.031 25.601 61.8935 25.4698 61.77L25.0498 61.35L24.1198 62.27ZM22.1198 63.27L24.5798 60.8101L24.1298 60.36L24.5398 59.9501L25.8698 61.29C26.0973 61.5057 26.2987 61.7474 26.4698 62.0101C26.5927 62.214 26.6388 62.4551 26.5998 62.6901C26.5647 62.9524 26.437 63.1936 26.2398 63.3701C26.0562 63.5792 25.7996 63.7101 25.5226 63.7361C25.2456 63.7622 24.9691 63.6813 24.7498 63.5101L24.1298 65.29L24.5298 65.6901L24.1198 66.1L23.4098 65.39L24.1998 63.11L23.7398 62.64L22.6098 63.77L23.0298 64.1901L22.6198 64.6L21.2598 63.23L21.6698 62.8201L22.1198 63.27Z" fill="#fff"/>
<path d="M69.4599 62.15L71.9599 64.57L72.0799 64.69L71.9599 64.81L71.6699 65.11L71.8399 65.27L72.9099 64.16L72.7499 64L72.4499 64.31L72.3299 64.44L72.1999 64.31L69.6999 61.89L69.5799 61.77L69.6999 61.65L70.3599 60.96L70.4799 60.83L70.6099 60.96L71.3299 61.66L71.4899 61.5L70.4899 60.5L68.1199 62.95L69.1199 63.95L69.2699 63.79L68.5499 63.08L68.4199 62.96L68.5499 62.84L69.2099 62.15L69.3299 62.02L69.4599 62.15ZM71.6099 64.67L69.3599 62.5L68.9399 62.93L69.6599 63.64L69.7899 63.76L69.6699 63.88L69.2699 64.3L69.1499 64.42L69.0199 64.3L67.7499 63.07L67.6299 62.95L67.7499 62.83L70.3599 60.12L70.4899 60L70.6099 60.12L71.8799 61.35L72.0099 61.47L71.8799 61.6L71.4799 62.01L71.3599 62.13L71.2399 62.01L70.5099 61.31L70.0899 61.74L72.3399 63.92L72.6399 63.61L72.7599 63.49L72.8899 63.61L73.2999 64.01L73.4299 64.13L73.3099 64.26L71.9699 65.67L71.8399 65.8L71.7199 65.68L71.2999 65.27L71.1799 65.15L71.2999 65.03L71.6099 64.67ZM64.0999 66.45L66.0999 69.3L66.1999 69.44L66.0499 69.54L65.6499 69.83L65.7899 70.01L67.0599 69.13L66.9299 68.94L66.5199 69.22L66.3799 69.32L66.2799 69.17L64.3699 66.44L64.5899 66.18L68.5899 68.11L68.9599 67.86L66.6799 64.67L66.5799 64.53L66.7199 64.43L67.1399 64.14L66.9999 63.95L65.7299 64.84L65.8599 65.03L66.2599 64.75L66.3999 64.65L66.4999 64.8L68.2299 67.28L68.0099 67.54L64.3699 65.79L63.2999 66.54L63.4299 66.73L63.8299 66.45L63.9799 66.35L64.0999 66.45ZM65.6999 69.36L63.9099 66.79L63.5099 67.07L63.3599 67.17L63.2599 67.03L62.9299 66.55L62.8299 66.41L62.9799 66.31L64.2799 65.4L64.3599 65.34H64.4499L67.5799 66.84L66.3299 65.05L65.9399 65.33L65.7899 65.43L65.6899 65.28L65.3599 64.81L65.2599 64.66L65.4099 64.56L66.9699 63.47L67.1099 63.37L67.2099 63.52L67.5399 63.99L67.6399 64.14L67.4999 64.24L67.0799 64.53L69.3299 67.75L69.4299 67.89L69.2899 67.99L68.6999 68.41L68.6099 68.47H68.5199L65.0299 66.79L66.4599 68.79L66.8599 68.51L66.9999 68.41L67.0999 68.55L67.4399 69.03L67.5399 69.17L67.3899 69.27L65.8299 70.36L65.6899 70.46L65.5899 70.32L65.2599 69.84L65.1599 69.7L65.2999 69.6L65.6999 69.36ZM60.4999 68.28L61.8199 69.83L61.9799 70.01L61.7599 70.1L60.5399 70.62L60.3199 70.71V70.47L60.1499 68.47V68.35H60.2699H60.3299L60.4499 68.3L60.4999 68.28ZM61.3999 69.87L60.5199 68.87L60.6299 70.23L61.3999 69.87ZM60.4599 70.87L61.9899 70.22H62.1099L62.1899 70.32L62.9199 71.15L63.0799 71.33L62.8599 71.43L62.4899 71.58L62.5799 71.8L63.9299 71.23L63.8399 71.01L63.5199 71.15H63.4099L63.3299 71.06L61.8499 69.48L60.4599 67.99L59.8999 68.22L60.1099 72.06V72.41V72.53H59.9999L59.6399 72.68L59.7299 72.89L61.0899 72.31L60.9999 72.1L60.6399 72.25L60.4199 72.35V72.1L60.3399 71V70.87H60.4599ZM62.0099 70.59L60.7099 71.15V71.89L61.0099 71.76L61.1699 71.69L61.2399 71.85L61.4599 72.39L61.5299 72.55L61.3699 72.62L59.6899 73.33L59.5199 73.4L59.4599 73.24L59.2299 72.7L59.1599 72.54L59.3199 72.47L59.7299 72.3V72.08C59.6599 70.76 59.5899 69.44 59.5099 68.08V67.96L59.6199 67.91L60.3999 67.58L60.5199 67.53L60.5999 67.62L62.0799 69.2L63.4699 70.69L63.8399 70.53L63.9999 70.47L64.0699 70.63L64.2899 71.16L64.3599 71.32L64.1999 71.39L62.5199 72.1L62.3599 72.17L62.2999 72.01L62.0699 71.47L61.9999 71.31L62.1599 71.24L62.4699 71.11L62.0099 70.59ZM55.1099 71.83L54.5899 71.98H54.4199L54.3699 71.81L54.0099 70.55V70.38H54.1799L54.7499 70.21L55.0699 70.13H55.3299H55.5699L55.7799 70.24L55.9599 70.43L56.0699 70.67C56.0831 70.7629 56.0831 70.8571 56.0699 70.95C56.0858 71.0393 56.0858 71.1307 56.0699 71.22L55.9399 71.43L55.7599 71.59L55.5099 71.7C55.4002 71.7471 55.2864 71.7839 55.1699 71.81M54.7199 71.58L55.0799 71.48L55.3899 71.37L55.5799 71.28L55.6799 71.19L55.7499 71.08V70.94V70.74L55.6099 70.67L55.5199 70.57L55.3999 70.51H55.2799H55.0799L54.7899 70.58L54.3899 70.7L54.7199 71.58ZM53.7199 70.68L54.7199 74.02V74.19L54.5499 74.24L54.0999 74.37L54.1699 74.59L55.6899 74.16L55.6199 73.93L55.2199 74.05L55.0499 74.1V73.93L54.6199 72.4L54.5699 72.23H54.7399L55.3699 72.05H55.4699L55.5499 72.13L57.0899 73.84L57.7799 73.64L57.7099 73.42L57.3399 73.53H57.2299L57.1599 73.45L55.9099 72.05L55.7599 71.89L55.9499 71.78C56.1706 71.6729 56.3473 71.4927 56.4499 71.27C56.5306 71.0574 56.5306 70.8226 56.4499 70.61C56.4235 70.4925 56.3761 70.3806 56.3099 70.28L56.0999 70.05C56.0165 69.9917 55.9257 69.9446 55.8299 69.91C55.7372 69.8954 55.6427 69.8954 55.5499 69.91C55.4235 69.8979 55.2963 69.8979 55.1699 69.91C55.0014 69.9375 54.8345 69.9742 54.6699 70.02L53.0299 70.49L53.0899 70.72L53.5399 70.59H53.7099L53.7199 70.68ZM54.2899 73.95L53.4299 70.95L52.9899 71.08L52.8199 71.13V70.96L52.6599 70.4V70.23L52.8199 70.18L54.6399 69.67C54.8138 69.616 54.9908 69.5726 55.1699 69.54C55.3165 69.5319 55.4634 69.5319 55.6099 69.54C55.7455 69.5396 55.8804 69.5599 56.0099 69.6C56.1396 69.643 56.2612 69.7072 56.3699 69.79C56.484 69.8794 56.5821 69.9877 56.6599 70.11C56.743 70.2402 56.8069 70.3816 56.8499 70.53C56.9513 70.8214 56.9513 71.1386 56.8499 71.43C56.7429 71.6562 56.5771 71.8496 56.3699 71.99L57.3699 73.15L57.8099 73.03L57.9799 72.98V73.15L58.1399 73.71V73.87L57.9699 73.92L56.9699 74.2H56.8599L56.7899 74.12L55.2499 72.4L54.8899 72.5L55.2299 73.69L55.6399 73.58H55.7999V73.75L55.9599 74.31V74.48H55.7899L53.9299 75H53.7599V74.83L53.5999 74.28V74.11H53.7699L54.2899 73.95ZM48.4899 73.53L48.2999 71.22V71.04H48.4799H48.8499V70.82L47.3799 70.94V71.17H47.7799H47.9499V71.35L48.1499 73.69C48.1423 73.8432 48.1423 73.9967 48.1499 74.15C48.1626 74.2489 48.1861 74.3462 48.2199 74.44L48.3099 74.65L48.4599 74.84L48.6499 74.99C48.7377 75.0419 48.8318 75.0823 48.9299 75.11C49.051 75.1421 49.1749 75.1622 49.2999 75.17C49.4498 75.1797 49.6001 75.1797 49.7499 75.17C49.8884 75.1589 50.0256 75.1355 50.1599 75.1C50.2713 75.0739 50.3789 75.0336 50.4799 74.98C50.5704 74.9306 50.6544 74.8701 50.7299 74.8L50.8999 74.61L51.0099 74.39L51.0599 74.2C51.065 74.1101 51.065 74.0199 51.0599 73.93C51.0599 73.82 51.0599 73.68 51.0599 73.52L50.8499 71.1V70.93H51.0299H51.4299V70.7L49.9699 70.83V71.06H50.3299H50.5099V71.23L50.7199 73.58C50.7199 73.76 50.7199 73.92 50.7199 74.05C50.7327 74.163 50.7327 74.277 50.7199 74.39C50.6988 74.4842 50.6579 74.5728 50.5999 74.65L50.3899 74.85C50.2966 74.9161 50.1913 74.9637 50.0799 74.99C49.9536 75.0304 49.8224 75.0539 49.6899 75.06C49.5704 75.0753 49.4494 75.0753 49.3299 75.06C49.2184 75.0449 49.1102 75.0111 49.0099 74.96C48.9241 74.9081 48.8437 74.8478 48.7699 74.78L48.6299 74.54C48.6299 74.46 48.6299 74.35 48.5599 74.22C48.4899 74.09 48.5599 73.93 48.4999 73.75M48.6699 71.58L48.8499 73.72C48.8499 73.9 48.8499 74.05 48.9099 74.16C48.8995 74.243 48.8995 74.327 48.9099 74.41L48.9899 74.53L49.1399 74.64L49.3399 74.71H49.6099L49.9299 74.66L50.1399 74.56L50.2699 74.44L50.3299 74.31C50.3428 74.2238 50.3428 74.1362 50.3299 74.05C50.3299 73.93 50.3299 73.79 50.3299 73.61L50.1399 71.44H49.7799H49.5999V71.26V70.68V70.51H49.7799L51.5899 70.36H51.7599V70.54V71.11V71.29H51.6099H51.1999L51.3999 73.53C51.3999 73.69 51.3999 73.83 51.3999 73.96C51.3999 74.09 51.3999 74.19 51.3999 74.27C51.3872 74.3656 51.3637 74.4596 51.3299 74.55C51.2878 74.6473 51.2376 74.7409 51.1799 74.83C51.1173 74.931 51.0398 75.0221 50.9499 75.1C50.8564 75.1834 50.7521 75.2541 50.6399 75.31C50.5145 75.3812 50.3799 75.435 50.2399 75.47C50.0856 75.5088 49.9284 75.5356 49.7699 75.55C49.6001 75.5598 49.4298 75.5598 49.2599 75.55C49.1139 75.5406 48.9695 75.5137 48.8299 75.47C48.7058 75.4346 48.5853 75.3877 48.4699 75.33C48.3687 75.2673 48.2748 75.1935 48.1899 75.11L47.9999 74.86C47.9506 74.7696 47.9072 74.676 47.8699 74.58C47.8699 74.49 47.8699 74.37 47.7999 74.23C47.7299 74.09 47.7999 73.93 47.7399 73.75L47.5499 71.58H47.1599H46.9799V71.41V70.83V70.65H47.1599L48.9799 70.49H49.1499V70.66L49.1999 71.24V71.41H49.0199L48.6699 71.58ZM44.1199 71.1L44.4899 73.1V73.34H44.2499L42.9399 73.17H42.6999L42.7999 72.96L43.6799 71.11V70.99H43.8099H43.9999L44.1199 71.1ZM44.1199 72.93L43.8699 71.59L43.2799 72.83L44.1199 72.93ZM42.7999 73.31L44.4599 73.52H44.5899V73.64L44.7999 74.73V74.96H44.5599L44.1599 74.91V75.14L45.6199 75.32V75.1L45.2799 75.05H45.1599V74.93L44.1599 70.84L43.5599 70.76L41.6699 74.5L41.6099 74.61H41.4899H41.1099V74.83L42.5799 75.02V74.79L42.1999 74.74H41.9499L42.0599 74.52L42.5499 73.52V73.41L42.7999 73.31ZM44.2899 73.85L42.8899 73.68L42.5599 74.34H42.8799H43.0499V74.52L42.9799 75.09V75.27H42.8099L40.9899 75.04H40.8199V74.87L40.8899 74.29V74.12H41.0699L41.4999 74.17L43.3899 70.43L43.4499 70.32H43.5699L44.4099 70.42H44.5299V70.54L45.5299 74.63H45.9299H46.0999V74.8L46.0299 75.38V75.55H45.8499L44.0499 75.33H43.8699V75.15L43.9399 74.58V74.4H44.1099L44.4399 74.45L44.2899 73.85ZM38.4499 69.96L37.4499 73.3L37.3999 73.47L37.2399 73.42L36.8299 73.3L36.7699 73.53L38.2599 73.96L38.3199 73.73L37.9099 73.61H37.7399V73.44L38.7399 70.09V69.93H38.9099L39.8299 70.2H39.9899V70.37L39.7199 71.37L39.9299 71.44L40.3199 70.08L37.0499 69.08L36.6499 70.44L36.8699 70.51L37.1499 69.51V69.34H37.3099L38.2299 69.6H38.3999L38.4499 69.96ZM37.1999 73.04L38.0699 70.04L37.4899 69.87L37.2099 70.87L37.1599 71.04H36.9899L36.4399 70.88H36.2699L36.3199 70.72L36.8099 69.02V68.85H36.9699L40.5899 69.85H40.7599V70.02L40.2699 71.71V71.88H40.0999L39.5499 71.72H39.3799L39.4299 71.55L39.7099 70.55L39.1299 70.38L38.2599 73.38L38.6799 73.5H38.8399V73.67L38.6699 74.23V74.4H38.4999L36.4499 73.67L36.2899 73.62V73.46L36.4499 72.9L36.4999 72.73H36.6699L37.1999 73.04ZM31.6099 69.67L31.0399 70.88L31.2499 70.98L31.3399 70.79L31.5099 70.43L31.6599 70.79C31.7309 70.9717 31.8361 71.138 31.9699 71.28C32.0948 71.4138 32.2441 71.5224 32.4099 71.6C32.5677 71.6741 32.7366 71.7214 32.9099 71.74C33.0723 71.7497 33.235 71.7294 33.3899 71.68C33.5387 71.6339 33.6753 71.5554 33.7899 71.45C33.9128 71.3417 34.0116 71.2089 34.0799 71.06C34.1321 70.9566 34.1659 70.8449 34.1799 70.73C34.1949 70.6205 34.1949 70.5095 34.1799 70.4C34.1652 70.2972 34.1383 70.1965 34.0999 70.1L33.9799 69.87L33.7299 69.61C33.6099 69.5 33.4799 69.38 33.3199 69.25L33.0099 68.99L32.8099 68.8L32.6899 68.62L32.6199 68.42V68.19L32.6899 67.97C32.7326 67.8728 32.7977 67.7871 32.8799 67.72C32.9685 67.6518 33.0701 67.6024 33.1784 67.5749C33.2867 67.5474 33.3996 67.5423 33.5099 67.56C33.641 67.5845 33.7686 67.6248 33.8899 67.68C34.0903 67.7738 34.2653 67.9144 34.3999 68.09C34.5311 68.274 34.6167 68.4864 34.6499 68.71V68.81L34.5899 68.95L34.7899 69.04L35.2399 68.04L35.0399 67.95L34.9799 68.07L34.8299 68.39L34.6699 68.08C34.5888 67.9304 34.4879 67.7925 34.3699 67.67C34.2543 67.5536 34.1188 67.4588 33.9699 67.39C33.8217 67.3204 33.6628 67.2765 33.4999 67.26C33.3548 67.2298 33.205 67.2298 33.0599 67.26C32.923 67.3027 32.7968 67.3742 32.6899 67.47C32.5758 67.5776 32.484 67.7067 32.4199 67.85C32.3733 67.9415 32.3397 68.0391 32.3199 68.14C32.3099 68.233 32.3099 68.3269 32.3199 68.42C32.3326 68.5092 32.3561 68.5965 32.3899 68.68L32.5399 68.92C32.6179 69.021 32.7049 69.1148 32.7999 69.2C32.9199 69.32 33.0599 69.44 33.2099 69.57L33.5799 69.91C33.6637 69.9946 33.7375 70.0886 33.7999 70.19C33.8498 70.2891 33.8739 70.3992 33.8699 70.51C33.8575 70.6273 33.8272 70.7419 33.7799 70.85C33.7258 70.9683 33.6474 71.0739 33.5499 71.16C33.4544 71.2456 33.342 71.3103 33.2199 71.35C33.0974 71.3698 32.9725 71.3698 32.8499 71.35C32.7213 71.3408 32.5957 71.3069 32.4799 71.25C32.2487 71.1452 32.0563 70.9702 31.9299 70.75C31.792 70.5054 31.7165 70.2307 31.7099 69.95V69.87L31.8099 69.66L31.6099 69.67ZM30.6099 70.89L31.3299 69.36L31.3999 69.2L31.5599 69.28L32.0799 69.52L32.2399 69.6L32.1699 69.76L32.0099 70.09C32.0227 70.2999 32.0807 70.5046 32.1799 70.69C32.2792 70.8406 32.4175 70.9615 32.5799 71.04L32.8299 71.11H33.0699L33.2699 71L33.4099 70.81L33.4699 70.59V70.45L33.2999 70.24C33.1993 70.1271 33.0889 70.0234 32.9699 69.93C32.7999 69.79 32.6599 69.66 32.5399 69.54C32.4346 69.4419 32.3345 69.3384 32.2399 69.23C32.1636 69.1316 32.0997 69.0241 32.0499 68.91C32.0015 68.7982 31.9679 68.6805 31.9499 68.56C31.9301 68.4341 31.9301 68.3059 31.9499 68.18C32.0108 67.8476 32.1753 67.5431 32.4199 67.31C32.5674 67.1804 32.7415 67.0848 32.9299 67.03C33.1137 66.9706 33.3078 66.9502 33.4999 66.97C33.9079 67.0105 34.2894 67.1907 34.5799 67.48L34.7699 67.69L34.8399 67.54L34.9999 67.62L35.5099 67.86L35.6699 67.93L35.5999 68.09L34.9999 69.37L34.9299 69.53L34.7699 69.45L34.2499 69.21L34.0999 69.14L34.1699 68.98L34.2799 68.73C34.2547 68.5823 34.1966 68.4422 34.1099 68.32C34.011 68.1867 33.8804 68.0802 33.7299 68.01C33.6406 67.9709 33.5464 67.944 33.4499 67.93H33.2099L33.0599 68L32.9599 68.12V68.24V68.36V68.47L33.0299 68.57L33.1999 68.74L33.4999 68.99C33.6699 69.13 33.8099 69.26 33.9299 69.37C34.0315 69.462 34.1252 69.5623 34.2099 69.67C34.2908 69.7635 34.352 69.8723 34.3899 69.99C34.4851 70.2523 34.5126 70.5343 34.4699 70.81C34.446 70.9566 34.3987 71.0984 34.3299 71.23C34.2477 71.4208 34.1248 71.5915 33.9699 71.73C33.8166 71.8719 33.6314 71.9748 33.4299 72.03C33.2336 72.0956 33.0265 72.1228 32.8199 72.11C32.6089 72.0861 32.4029 72.0287 32.2099 71.94C31.9985 71.8453 31.8081 71.7093 31.6499 71.54C31.5754 71.4561 31.5084 71.3657 31.4499 71.27L31.3799 71.43L31.2199 71.36L30.6999 71.11L30.5399 71.04L30.6099 70.89ZM28.7999 64.68L26.6099 67.46L26.4999 67.6L26.3599 67.49L26.0299 67.23L25.8799 67.41L28.6499 69.57L29.3099 68.73L29.1299 68.59L28.7199 69.11L28.6099 69.25L28.4699 69.14L26.9099 67.92L26.7799 67.81L26.8799 67.68L27.8199 66.48L27.9299 66.35L28.0699 66.45L29.2899 67.45L29.4299 67.27L28.2099 66.27L28.0699 66.16L28.1799 66.03L29.0299 64.94L29.1399 64.8L29.2699 64.91L30.8299 66.13L30.9699 66.24L30.8599 66.38L30.4699 66.88L30.6499 67.02L31.2899 66.2L28.6099 64.03L28.4699 64.21L28.7999 64.48L28.9399 64.58L28.7999 64.68ZM26.4899 67.07L28.4099 64.67L28.0699 64.41L27.9399 64.3L28.0499 64.17L28.3999 63.71L28.5099 63.57L28.6099 63.67L31.6099 66.05L31.7499 66.16L31.6499 66.29L30.7799 67.39L30.6799 67.53L30.5399 67.42L30.0899 67.07L29.9499 66.96L30.0599 66.82L30.4499 66.32L29.1699 65.32L28.5299 66.13L29.7499 67.13L29.8899 67.24L29.7799 67.37L29.4199 67.83L29.3099 67.97L29.1799 67.86L27.9599 66.86L27.2399 67.78L28.5199 68.78L28.9299 68.26L29.0399 68.12L29.1799 68.23L29.6299 68.58L29.7699 68.69L29.6599 68.82L28.7799 69.95L28.6699 70.08L28.5399 69.98L25.5399 67.6L25.3999 67.49L25.5099 67.35L25.8699 66.9L25.9799 66.76L26.1099 66.87L26.4899 67.07ZM24.3499 62.77L23.9599 62.38L23.8399 62.25L23.9699 62.13L24.8899 61.2L25.0199 61.08L25.1399 61.21L25.5599 61.63L25.7899 61.87L25.9399 62.07L26.0299 62.3V62.54L25.9499 62.79L25.7899 63L25.5599 63.18L25.3099 63.26H25.0599L24.8299 63.17L24.6099 63.01L24.3399 62.77M24.3399 62.26L24.5999 62.52C24.6744 62.5991 24.7546 62.6727 24.8399 62.74L25.0099 62.87H25.1299H25.2699H25.3999L25.5599 62.75L25.6099 62.67V62.54V62.41V62.3L25.4899 62.14L25.2799 61.91L25.0099 61.67L24.3399 62.26ZM24.6499 60.96L22.1799 63.41L22.0599 63.54L21.9299 63.41L21.6099 63.09L21.4399 63.25L22.5599 64.37L22.7299 64.21L22.4299 63.91L22.3099 63.79L22.4299 63.66L23.5499 62.54L23.6799 62.42L23.7999 62.54L24.2599 63L24.3399 63.08V63.18L23.5899 65.36L24.0999 65.87L24.2599 65.71L23.9899 65.43L23.9099 65.35V65.25L24.5199 63.48L24.5899 63.27L24.7799 63.38C24.9827 63.5186 25.2245 63.5887 25.4699 63.58C25.6963 63.5471 25.9045 63.4377 26.0599 63.27C26.1447 63.1887 26.2156 63.0941 26.2699 62.99C26.3211 62.8968 26.355 62.7952 26.3699 62.69C26.385 62.5906 26.385 62.4894 26.3699 62.39C26.3498 62.2956 26.3161 62.2047 26.2699 62.12C26.2054 62.0107 26.1318 61.907 26.0499 61.81C25.9499 61.69 25.8399 61.57 25.6999 61.43L24.4899 60.22L24.3299 60.38L24.6599 60.71L24.7799 60.83L24.6499 60.96ZM22.0599 63.04L24.2699 60.83L23.9499 60.51L23.8199 60.38L23.9499 60.26L24.3599 59.85L24.4799 59.72L24.6099 59.85L25.9399 61.18C26.0799 61.32 26.1999 61.46 26.3099 61.59C26.4019 61.7037 26.4855 61.8241 26.5599 61.95C26.6303 62.0677 26.6809 62.196 26.7099 62.33C26.73 62.4659 26.73 62.6041 26.7099 62.74C26.6875 62.8838 26.6401 63.0225 26.5699 63.15C26.4957 63.2841 26.405 63.4084 26.2999 63.52C26.0844 63.7447 25.7987 63.8894 25.4899 63.93C25.2419 63.9449 24.9942 63.8967 24.7699 63.79L24.2599 65.26L24.6099 65.67L24.7299 65.79L24.5999 65.91L24.1899 66.32L24.0699 66.45L23.9499 66.32L23.2399 65.61L23.1599 65.53V65.43L23.9099 63.25L23.6499 62.99L22.7699 63.87L23.0699 64.16L23.1899 64.29L23.0699 64.41L22.6499 64.82L22.5299 64.94L22.4099 64.82L21.0399 63.45L20.9199 63.33L21.0399 63.2L21.4599 62.79L21.6099 62.67L21.7299 62.8L22.0599 63.04Z" fill="#fff"/>
<path d="M23.1798 43.07H21.3998L19.3998 47.81C19.3098 48.06 19.2198 48.33 19.1298 48.6C18.6598 50 19.2298 49.96 19.6998 50.42H15.1598L21.0598 37.8L21.1998 38.16L23.1798 43.07ZM1.42981 34.72C1.42981 33.22 1.5198 31.61 0.0498047 30.81H11.4998V34.28C11.2572 33.9111 10.9302 33.6053 10.5458 33.388C10.1615 33.1706 9.73097 33.0479 9.28981 33.03C8.68148 32.9741 8.07061 32.9508 7.4598 32.96H4.23981V38.49H7.4598C7.99873 38.5036 8.53774 38.4668 9.06981 38.38C9.39213 38.3309 9.70344 38.226 9.9898 38.07C10.3814 37.7766 10.7197 37.4181 10.9898 37.01V42.07C10.8074 41.6705 10.5189 41.3287 10.1556 41.0819C9.79241 40.835 9.3684 40.6925 8.92981 40.67C8.56981 40.67 8.0798 40.67 7.4598 40.67H4.23981L4.41981 46.58C4.41981 48.24 4.41981 49.48 5.79981 50.49H1.60981L1.42981 34.72ZM46.9498 39.35L52.9498 48.07L53.4698 48.85C53.5795 49.0224 53.7106 49.1804 53.8598 49.32C53.9909 49.4409 54.1313 49.5512 54.2798 49.65C54.4398 49.76 54.6598 49.89 54.9298 50.05V50.3L53.4198 50.44C52.959 50.4717 52.4961 50.4515 52.0398 50.38C51.7513 50.3556 51.4698 50.2776 51.2098 50.15C50.9807 50.0303 50.7769 49.8673 50.6098 49.67C50.4398 49.45 50.2398 49.15 49.9898 48.79L43.9898 39.7C44.7698 39.63 45.5798 39.7 46.3398 39.52C46.5388 39.4839 46.7358 39.4373 46.9298 39.38M40.1598 34.67C40.1598 33.27 40.2298 31.47 38.7798 30.76H45.0498C46.2146 30.7412 47.3781 30.8484 48.5198 31.08C49.3306 31.2456 50.0952 31.5869 50.7598 32.08C51.3099 32.4949 51.727 33.0614 51.9598 33.71C52.2164 34.4558 52.3383 35.2414 52.3198 36.03C52.3428 36.8067 52.1925 37.5787 51.8798 38.29C51.6288 38.8103 51.2906 39.2839 50.8798 39.69L49.2198 37.39C49.349 37.0447 49.4134 36.6786 49.4098 36.31C49.4524 35.6352 49.2579 34.9666 48.8598 34.42C48.5021 33.973 48.0331 33.6282 47.4998 33.42C46.9535 33.2052 46.376 33.0803 45.7898 33.05C45.1898 33.05 44.6698 32.99 44.2098 32.99C43.9967 32.9757 43.7829 32.9757 43.5698 32.99L42.9398 33.09V45.56C42.9359 46.7229 43.0566 47.8828 43.2998 49.02C43.5121 49.6013 43.9136 50.0943 44.4398 50.42H40.2798L40.1598 34.67ZM68.2298 33.16C67.7735 33.0186 67.2975 32.951 66.8198 32.96C66.3323 32.9489 65.847 33.0304 65.3898 33.2C65.0223 33.332 64.683 33.5321 64.3898 33.79C64.1388 34.012 63.9377 34.2846 63.7998 34.59C63.6742 34.8663 63.6094 35.1664 63.6098 35.47C63.5799 36.0765 63.7922 36.67 64.1998 37.12C64.6284 37.569 65.1203 37.9531 65.6598 38.26C66.2398 38.6 66.8598 38.93 67.5298 39.26C68.1958 39.5852 68.8231 39.9844 69.3998 40.45C69.9912 40.9386 70.4834 41.536 70.8498 42.21C71.2588 43.0459 71.4546 43.97 71.4198 44.9C71.4264 45.6539 71.2837 46.4016 70.9998 47.1C70.716 47.7731 70.2855 48.3744 69.7398 48.86C69.1421 49.3893 68.4405 49.7878 67.6798 50.03C66.7662 50.3266 65.8103 50.4719 64.8498 50.46C64.1773 50.4566 63.507 50.3829 62.8498 50.24C62.2098 50.09 61.5498 49.91 60.8498 49.69V46.51C61.6056 47.1602 62.4684 47.6744 63.3998 48.03C63.8977 48.1877 64.4175 48.2654 64.9398 48.26C65.4531 48.2638 65.9624 48.1687 66.4398 47.98C66.8662 47.8136 67.2542 47.5618 67.5798 47.24C67.8867 46.9294 68.1312 46.5628 68.2998 46.16C68.46 45.7593 68.5415 45.3315 68.5398 44.9C68.5619 44.283 68.3593 43.679 67.9698 43.2C67.5455 42.728 67.0575 42.3173 66.5198 41.98C65.9398 41.61 65.3098 41.26 64.6398 40.92C63.9726 40.5897 63.3395 40.1944 62.7498 39.74C62.1764 39.2949 61.6885 38.7494 61.3098 38.13C60.9033 37.4298 60.7023 36.6292 60.7298 35.82C60.7051 35.0312 60.8842 34.2494 61.2498 33.55C61.58 32.9345 62.0407 32.3987 62.5998 31.98C63.1503 31.5647 63.7698 31.2499 64.4298 31.05C65.0782 30.8525 65.752 30.7514 66.4298 30.75C66.8087 30.749 67.187 30.7824 67.5598 30.85L68.6398 31.04C68.9698 31.1 69.2498 31.17 69.4798 31.23C69.7591 31.3265 70.0576 31.354 70.3498 31.31C70.48 31.2871 70.6012 31.2281 70.6998 31.14V34.67C70.0106 33.9893 69.1765 33.4731 68.2598 33.16M84.4198 43.09H82.6098L80.6098 47.82L80.3298 48.62C79.8698 50.01 80.4398 49.97 80.9098 50.43H76.3598L82.2598 37.82L82.5398 38.48L84.4198 43.09ZM84.2598 33.5L85.3498 31.01H85.6098L91.7298 44.59C92.4098 46.09 93.0398 47.65 93.7898 49.11C93.9936 49.6456 94.3393 50.1157 94.7898 50.47H89.7098C90.6598 50.07 90.6098 49.47 90.3998 48.6C90.3398 48.36 90.2798 48.14 90.2098 47.91L88.9298 44.91L87.2898 41.03L86.7098 39.71L84.2598 33.5ZM23.0498 33.5L24.1498 31.01H24.4698L30.6098 44.57C31.2898 46.08 31.9198 47.64 32.6698 49.1C32.8732 49.6359 33.2189 50.1061 33.6698 50.46H28.5898C29.5298 50.06 29.4798 49.46 29.2698 48.59C29.2183 48.3569 29.1549 48.1266 29.0798 47.9L27.8098 44.9L26.1698 41.02L25.6398 39.81L23.0498 33.5Z" fill="#fff"/>
<path d="M21.4 42.96H23L21.09 38.2401V38.1301L15.38 50.34H19.38C18.97 50.04 18.66 49.8201 19.06 48.6301L19.33 47.83L21.33 43.1V43.03L21.4 42.96ZM23.18 43.1901H21.48L19.48 47.85C19.39 48.1 19.3 48.37 19.21 48.64C18.87 49.64 19.12 49.85 19.44 50.09C19.552 50.1664 19.6588 50.2499 19.76 50.34L19.68 50.54H15.13H14.94L15.02 50.3801L20.92 37.7601L21.03 37.52L21.13 37.77L21.28 38.1201L23.28 43.0001L23.34 43.16L23.18 43.1901ZM1.54 34.39C1.54 34.5 1.54 34.61 1.54 34.72L1.72 50.34H5.45C4.37 49.43 4.34 48.3401 4.31 46.9501C4.31 46.8201 4.31 46.69 4.31 46.55L4.12 40.67V40.55H7.46H8.3H8.94C9.39188 40.5651 9.83104 40.7035 10.21 40.9501C10.4778 41.1436 10.7082 41.3842 10.89 41.66V37.35L10.66 37.6C10.479 37.8038 10.2742 37.985 10.05 38.14C9.91555 38.2149 9.77505 38.2785 9.63 38.33C9.45261 38.3862 9.27236 38.433 9.09 38.47C8.55063 38.5516 8.00544 38.5884 7.46 38.58H4.12V32.8101H7.46H8.51H9.3C9.52 32.8101 9.72 32.87 9.89 32.91C10.0446 32.9449 10.1954 32.9951 10.34 33.0601C10.6081 33.1926 10.857 33.3608 11.08 33.5601L11.39 33.84V30.84H0.450001C1.53 31.65 1.54 32.99 1.54 34.3M1.31 34.6301V34.3C1.31 32.93 1.31 31.53 0 30.83V30.61H11.61V34.1901L11.39 34.2501C11.2598 34.0575 11.1013 33.8855 10.92 33.7401C10.7061 33.5638 10.4749 33.4097 10.23 33.28C10.099 33.2205 9.96137 33.1768 9.82 33.15C9.63579 33.1063 9.44862 33.0763 9.26 33.0601C9.05 33.0601 8.79 33.0601 8.49 33.0001H4.35V38.3H7.46C7.99216 38.3087 8.52409 38.2719 9.05 38.1901C9.22229 38.1563 9.39255 38.1129 9.56 38.0601C9.68765 38.0133 9.81138 37.9564 9.93 37.89C10.133 37.7426 10.3206 37.575 10.49 37.39C10.6519 37.2382 10.7901 37.0629 10.9 36.8701L11.12 36.9301V41.9901L10.91 42.05C10.7 41.6666 10.4182 41.3271 10.08 41.05C9.73117 40.8313 9.33137 40.7073 8.92 40.6901H8.29H4.36L4.54 46.47C4.54 46.6 4.54 46.7401 4.54 46.8701C4.54 48.3001 4.6 49.4 5.86 50.29L5.79 50.5001H1.49V50.39L1.3 34.65L1.31 34.6301ZM52.85 48.05L46.9 39.4H46.69L46.38 39.46C45.8937 39.5385 45.4025 39.5819 44.91 39.59H44.21L50.1 48.5101L50.43 49.0101L50.71 49.39C50.7949 49.4849 50.8851 49.5751 50.98 49.66C51.0677 49.7389 51.1651 49.8061 51.27 49.86C51.3787 49.9246 51.4968 49.9718 51.62 50.0001C51.7604 50.0426 51.9043 50.0727 52.05 50.09H52.19C52.5919 50.1385 52.9981 50.1385 53.4 50.09L54.81 49.96V49.89L54.5 49.7001L54.22 49.52L53.99 49.36L53.78 49.1801L53.57 48.96C53.4986 48.8736 53.4318 48.7835 53.37 48.6901L53.23 48.47C53.12 48.31 53 48.12 52.85 47.91M47.04 39.05L53.04 47.77C53.19 47.98 53.32 48.17 53.42 48.33L53.57 48.55L53.75 48.8L53.93 49.0001L54.13 49.16L54.35 49.3101L54.62 49.4901L54.99 49.71H55.04V50.1201H54.94L53.43 50.2601C53.0114 50.3089 52.5886 50.3089 52.17 50.2601H52.04C51.8781 50.2416 51.7176 50.2115 51.56 50.17C51.4253 50.1289 51.2948 50.0754 51.17 50.0101C51.0485 49.9463 50.9345 49.8691 50.83 49.78C50.7234 49.6865 50.6263 49.5826 50.54 49.47C50.45 49.36 50.36 49.23 50.25 49.08C50.14 48.93 50.03 48.76 49.92 48.58L43.92 39.4901L43.81 39.33H44.01C44.31 39.33 44.61 39.33 44.91 39.33C45.392 39.3124 45.8727 39.2691 46.35 39.2001C46.4451 39.1897 46.539 39.1695 46.63 39.14L46.91 39.0701H46.99L47.04 39.05ZM40.27 34.17V34.67L40.39 50.3101H44.13C43.6951 50.0093 43.3717 49.5735 43.21 49.0701C43.0767 48.5661 42.993 48.0503 42.96 47.53C42.8885 46.8657 42.8517 46.1982 42.85 45.53V32.9901H42.94H43.25H43.58H43.91H44.23H44.97H45.82C46.1191 33.0097 46.4164 33.0498 46.71 33.11C46.999 33.1769 47.283 33.2638 47.56 33.3701C47.8339 33.4758 48.0928 33.617 48.33 33.79C48.5691 33.9607 48.7843 34.1624 48.97 34.39C49.1699 34.641 49.3162 34.9303 49.4 35.2401C49.5043 35.6007 49.5548 35.9747 49.55 36.35C49.5653 36.5431 49.5653 36.737 49.55 36.9301C49.5208 37.1001 49.4773 37.2673 49.42 37.4301L50.96 39.5601C51.1135 39.3954 51.2571 39.2218 51.39 39.04C51.5494 38.7996 51.693 38.549 51.82 38.29C51.9709 37.9716 52.0818 37.6357 52.15 37.29C52.2209 36.8873 52.2544 36.479 52.25 36.0701C52.2522 35.655 52.2221 35.2404 52.16 34.83C52.1042 34.4884 52.0138 34.1533 51.89 33.83C51.7789 33.5227 51.624 33.233 51.43 32.97C51.2305 32.7022 50.995 32.4633 50.73 32.2601C50.421 32.0356 50.0851 31.8508 49.73 31.71C49.3287 31.5446 48.9138 31.4141 48.49 31.3201C47.9752 31.2117 47.4542 31.1349 46.93 31.09C46.3018 31.0308 45.671 31.0042 45.04 31.0101H39.19C40.26 31.8001 40.27 33.28 40.27 34.54V34.17ZM40.04 34.4301V34.17C40.04 32.85 40.04 31.2601 38.73 30.6201V30.4H45C45.69 30.4 46.33 30.4 46.91 30.48C47.4438 30.5322 47.9746 30.6123 48.5 30.72C48.9374 30.8206 49.3656 30.9577 49.78 31.1301C50.1375 31.2784 50.4738 31.4734 50.78 31.71C51.0637 31.9238 51.3162 32.1763 51.53 32.46C51.7362 32.7455 51.9011 33.0585 52.02 33.39C52.1438 33.7482 52.2375 34.1162 52.3 34.4901C52.3623 34.9105 52.3924 35.3351 52.39 35.7601C52.3936 36.1831 52.3534 36.6053 52.27 37.02C52.2036 37.3675 52.0892 37.7041 51.93 38.02C51.8001 38.2911 51.6497 38.5519 51.48 38.8C51.3157 39.0352 51.1317 39.256 50.93 39.46L50.84 39.55L50.76 39.4401L49.1 37.14V37.08C49.1631 36.9149 49.2099 36.7442 49.24 36.5701C49.2556 36.3904 49.2556 36.2097 49.24 36.03C49.2431 35.6923 49.1994 35.3557 49.11 35.03C49.0314 34.7504 48.8989 34.4889 48.72 34.2601C48.5451 34.0482 48.3434 33.86 48.12 33.7001C47.8994 33.537 47.6571 33.4057 47.4 33.3101C47.1385 33.2013 46.8673 33.1175 46.59 33.0601C46.3065 32.9998 46.0191 32.9597 45.73 32.9401H44.89H43.89H43.58H43.26H43.05V45.3101C43.0532 45.9582 43.0899 46.6057 43.16 47.2501C43.1948 47.753 43.2751 48.2517 43.4 48.7401C43.5633 49.2238 43.8836 49.6392 44.31 49.92L44.5 50.08L44.43 50.28H40.13V50.17L40.04 34.4301ZM67.61 32.89C67.8368 32.9182 68.0609 32.965 68.28 33.03C68.7463 33.1919 69.1925 33.4067 69.61 33.67C69.9464 33.879 70.2643 34.1166 70.56 34.3801V31.3801L70.36 31.4401C70.2014 31.4696 70.0386 31.4696 69.88 31.4401C69.7248 31.4207 69.5711 31.3906 69.42 31.35C69.2991 31.3083 69.1755 31.2749 69.05 31.2501L68.59 31.16L68.08 31.0601L67.52 30.96C67.153 30.9003 66.7818 30.8702 66.41 30.8701C66.0753 30.8669 65.741 30.8903 65.41 30.9401C65.0715 30.9924 64.7373 31.0693 64.41 31.17C64.0852 31.262 63.7703 31.3859 63.47 31.54C63.1718 31.6916 62.8874 31.869 62.62 32.0701C62.3533 32.2703 62.1086 32.4982 61.89 32.7501C61.6652 33.0128 61.4676 33.2976 61.3 33.6C61.1313 33.9159 61.0036 34.2519 60.92 34.6C60.8335 34.9976 60.7899 35.4032 60.79 35.8101C60.7862 36.2248 60.8366 36.6383 60.94 37.04C61.0268 37.3917 61.165 37.7286 61.35 38.04C61.5406 38.3398 61.7546 38.624 61.99 38.89C62.2304 39.1504 62.4913 39.3912 62.77 39.61C63.057 39.838 63.3576 40.0484 63.67 40.2401C63.9927 40.442 64.3266 40.6256 64.67 40.79C65.01 40.96 65.34 41.1301 65.67 41.3101L66.58 41.85C66.8648 42.0256 67.1356 42.2229 67.39 42.4401C67.6296 42.6396 67.8505 42.8605 68.05 43.1C68.256 43.3327 68.4125 43.6049 68.51 43.9C68.6162 44.2225 68.6669 44.5606 68.66 44.9C68.6603 45.1247 68.6402 45.349 68.6 45.5701C68.5517 45.7887 68.4848 46.0028 68.4 46.21C68.3167 46.4166 68.2129 46.6143 68.09 46.8C67.9638 46.9869 67.8198 47.161 67.66 47.3201C67.4982 47.4848 67.3168 47.6292 67.12 47.7501C66.9178 47.8832 66.7035 47.997 66.48 48.09C65.9901 48.2839 65.4668 48.3791 64.94 48.3701C64.6626 48.3693 64.3855 48.3526 64.11 48.3201C63.8565 48.2799 63.606 48.2231 63.36 48.15C62.5595 47.8556 61.8153 47.4261 61.16 46.8801L60.97 46.7401V49.61L61.88 49.8801L62.88 50.1201C63.2 50.1901 63.53 50.25 63.88 50.29C64.23 50.33 64.55 50.29 64.88 50.29C65.3787 50.2901 65.8767 50.2533 66.37 50.1801C66.8119 50.1169 67.2471 50.0131 67.67 49.8701C68.0577 49.7376 68.4326 49.5703 68.79 49.3701C69.1167 49.1881 69.4219 48.97 69.7 48.72C69.965 48.4836 70.2031 48.2187 70.41 47.9301C70.6131 47.6394 70.7841 47.3276 70.92 47.0001C71.0573 46.6782 71.1612 46.3431 71.23 46.0001C71.3027 45.6311 71.3395 45.2561 71.34 44.8801C71.3448 44.3893 71.2945 43.8996 71.19 43.42C71.1118 43.0105 70.9701 42.6158 70.77 42.2501C70.5907 41.8983 70.3798 41.5636 70.14 41.2501C69.9056 40.9657 69.6444 40.7044 69.36 40.47C69.07 40.24 68.77 40.03 68.47 39.83C68.1483 39.6293 67.8143 39.4489 67.47 39.29L66.47 38.79L65.57 38.28C65.2841 38.1213 65.013 37.9372 64.76 37.73C64.5176 37.545 64.2902 37.341 64.08 37.1201C63.8761 36.8972 63.7196 36.6352 63.62 36.35C63.5038 36.0298 63.4495 35.6905 63.46 35.35C63.4452 35.1937 63.4452 35.0364 63.46 34.8801C63.4963 34.7226 63.5465 34.5687 63.61 34.42C63.6832 34.2658 63.7702 34.1185 63.87 33.98C63.9762 33.8349 64.0968 33.7008 64.23 33.58C64.3765 33.4532 64.5337 33.3395 64.7 33.2401C64.8841 33.1381 65.0745 33.0479 65.27 32.97C65.4932 32.8866 65.7244 32.8263 65.96 32.79C66.2213 32.7487 66.4855 32.7286 66.75 32.73C67.0109 32.7255 67.2718 32.7422 67.53 32.78M68.13 33.15C67.9258 33.0801 67.7145 33.0332 67.5 33.0101C67.0027 32.9367 66.4973 32.9367 66 33.0101C65.7798 33.0369 65.5645 33.0941 65.36 33.1801C65.173 33.2473 64.9923 33.331 64.82 33.4301C64.6669 33.5229 64.5229 33.63 64.39 33.7501C64.2647 33.855 64.1537 33.9761 64.06 34.11C63.9645 34.228 63.887 34.3594 63.83 34.5001C63.7699 34.6352 63.7231 34.7759 63.69 34.92C63.6585 35.0579 63.6418 35.1987 63.64 35.34C63.6378 35.6391 63.6851 35.9364 63.78 36.22C63.8762 36.474 64.0186 36.7079 64.2 36.91C64.4024 37.1219 64.6196 37.3191 64.85 37.5001C65.1006 37.695 65.3646 37.872 65.64 38.03C65.92 38.2 66.22 38.37 66.53 38.53C66.84 38.69 67.17 38.87 67.53 39.03C67.8732 39.1948 68.2071 39.3784 68.53 39.58C68.85 39.79 69.15 40.0101 69.44 40.2401C69.7392 40.4792 70.0108 40.7509 70.25 41.05C70.5044 41.3615 70.7288 41.6963 70.92 42.05C71.1261 42.4363 71.2744 42.8507 71.36 43.28C71.4639 43.7765 71.5142 44.2828 71.51 44.79C71.5095 45.1793 71.4727 45.5677 71.4 45.9501C71.2534 46.6872 70.961 47.3876 70.54 48.0101C70.317 48.31 70.0659 48.5879 69.79 48.84C69.4979 49.0992 69.1795 49.3271 68.84 49.52C68.4724 49.7236 68.0876 49.8942 67.69 50.03C67.2507 50.1798 66.7989 50.2902 66.34 50.36C65.8364 50.4299 65.3284 50.4633 64.82 50.46C64.46 50.46 64.12 50.46 63.82 50.46C63.52 50.46 63.15 50.36 62.82 50.29C62.49 50.22 62.17 50.13 61.82 50.04L60.82 49.7401H60.74V46.2401L60.92 46.3701L61.3 46.65C61.9318 47.1825 62.653 47.599 63.43 47.8801C63.6598 47.9602 63.898 48.0139 64.14 48.04C64.4047 48.081 64.6722 48.1011 64.94 48.1C65.4364 48.1069 65.9293 48.0151 66.39 47.83C66.6021 47.7449 66.8062 47.6411 67 47.52C67.1796 47.4 67.3471 47.2627 67.5 47.11C67.6468 46.9618 67.7807 46.8012 67.9 46.6301C68.0124 46.4554 68.1094 46.2714 68.19 46.08C68.3488 45.6929 68.4303 45.2785 68.43 44.86C68.4322 44.5545 68.385 44.2505 68.29 43.96C68.2015 43.6956 68.0623 43.451 67.88 43.2401C67.6843 43.0128 67.4703 42.8021 67.24 42.61C66.992 42.4042 66.7315 42.2138 66.46 42.04L65.56 41.5001C65.24 41.3201 64.92 41.15 64.56 40.98C64.2 40.81 63.89 40.6301 63.56 40.4301C63.23 40.2301 62.94 40.01 62.65 39.79C62.3568 39.5663 62.0856 39.3152 61.84 39.04C61.5916 38.7655 61.3706 38.4674 61.18 38.15C60.9741 37.8159 60.8223 37.4515 60.73 37.0701C60.6268 36.6479 60.5764 36.2146 60.58 35.78C60.5806 35.3567 60.6241 34.9345 60.71 34.52C60.7946 34.1455 60.9327 33.7852 61.12 33.4501C61.2942 33.1345 61.4985 32.8364 61.73 32.5601C61.9593 32.2923 62.2175 32.0508 62.5 31.84C62.7808 31.6322 63.0785 31.4483 63.39 31.29C63.7092 31.1263 64.0443 30.9957 64.39 30.9C64.7178 30.8012 65.0519 30.7244 65.39 30.67C65.721 30.6195 66.0552 30.5927 66.39 30.59C66.7753 30.594 67.1598 30.6274 67.54 30.6901L68.1 30.79L68.62 30.89L69.08 30.98L69.47 31.08C69.6044 31.1196 69.7414 31.1497 69.88 31.17C70.0163 31.185 70.1537 31.185 70.29 31.17H70.44L70.58 31.0701L70.78 30.9V34.67L70.58 34.7501C70.2425 34.4179 69.8704 34.1228 69.47 33.8701C69.0678 33.6215 68.6383 33.4202 68.19 33.27M82.6 42.97H84.2L82.41 38.5601L82.23 38.14L76.52 50.35H80.57H80.52C80.12 50.06 79.81 49.84 80.2 48.65C80.25 48.51 80.3 48.3701 80.34 48.2401L80.48 47.85L82.48 43.1201V43.05L82.6 42.97ZM84.38 43.2001H82.68L80.68 47.86C80.68 47.98 80.59 48.1001 80.54 48.2501L80.41 48.65C80.06 49.65 80.31 49.86 80.64 50.09C80.7482 50.1707 80.8517 50.2576 80.95 50.35L80.87 50.55H76.32H76.14L76.21 50.39L82.11 37.78L82.23 37.54L82.33 37.78L82.61 38.4401L84.46 43.0101L84.53 43.17L84.38 43.2001ZM85.38 31.1201L84.38 33.5001L86.94 39.5701L87.53 40.89L87.6 41.05L89.18 44.78L90.43 47.78C90.43 47.89 90.5 48.0101 90.53 48.1201L90.62 48.47C90.7448 48.8503 90.7757 49.2552 90.71 49.65C90.6483 49.9029 90.4905 50.1217 90.27 50.2601H94.55C94.4457 50.157 94.3488 50.0468 94.26 49.9301C94.0696 49.6595 93.8992 49.3753 93.75 49.08C93.22 48.08 92.75 46.98 92.29 45.92C92.1 45.47 91.9 45.02 91.69 44.55L85.61 31.11L85.38 31.1201ZM84.1 33.4501L85.2 30.96V30.89H85.67V30.96L91.79 44.54C91.99 44.98 92.19 45.45 92.4 45.92C92.86 46.98 93.33 48.0401 93.85 49.0601C93.987 49.3462 94.1475 49.6205 94.33 49.8801C94.4663 50.076 94.6438 50.2398 94.85 50.36L94.79 50.58H89.71V50.35C89.8727 50.302 90.0217 50.2163 90.145 50.0999C90.2684 49.9835 90.3626 49.8396 90.42 49.6801C90.4697 49.3244 90.4389 48.9622 90.33 48.6201L90.24 48.27C90.24 48.16 90.17 48.0501 90.14 47.9501L88.86 44.9501V44.89L87.24 41.0601L87.17 40.9L86.71 39.67L84.12 33.55L84.1 33.4501ZM24.17 31.1201L23.17 33.5001L25.77 39.67L26.3 40.8801L26.37 41.04L27.94 44.77L29.19 47.77C29.19 47.89 29.27 48.0001 29.3 48.1201L29.39 48.47C29.5073 48.8519 29.5347 49.2558 29.47 49.65C29.4037 49.898 29.2513 50.1143 29.04 50.2601H33.31C33.2032 50.1558 33.1062 50.0419 33.02 49.92C32.8273 49.6545 32.6567 49.3735 32.51 49.08C32 48.08 31.51 47.02 31.08 45.97L30.45 44.67L24.36 31.16L24.17 31.1201ZM22.9 33.4501L23.99 30.96V30.89H24.46V30.96L30.58 44.54C30.79 44.99 31 45.48 31.21 45.96C31.67 47.01 32.13 48.0501 32.64 49.0601C32.7825 49.3453 32.9463 49.6194 33.13 49.8801C33.263 50.0753 33.437 50.2391 33.64 50.36V50.58H28.55V50.35C28.7138 50.3042 28.8639 50.2193 28.9876 50.1026C29.1113 49.9859 29.2048 49.8409 29.26 49.6801C29.3097 49.3244 29.2789 48.9622 29.17 48.6201L29.08 48.27C29.0527 48.1616 29.0193 48.0548 28.98 47.9501L27.71 44.9501V44.89L26.09 41.0601L26.03 40.9L25.57 39.9L22.94 33.66V33.61L22.9 33.4501Z" fill="#fff"/>
</g>
<defs>
<clipPath id="clip0_246_852">
<rect width="94.93" height="81.2" fill="#fff"/>
</clipPath>
</defs>
</svg>